<svg width="77" height="48" viewBox="0 0 77 48" fill="none" xmlns="http://www.w3.org/2000/svg">
<path d="M28.7956 5.03851C32.3179 1.8201 36.9367 0 41.8362 0C46.69 0 51.2689 1.78613 54.785 4.95521L54.8816 5.04287C56.1062 6.16284 56.1805 8.05707 55.0427 9.26579C55.0165 9.29359 54.9898 9.32092 54.9625 9.34776L48.2053 15.9702L44.8421 12.5217L50.1053 7.37092C47.747 5.73075 44.9227 4.81598 41.9464 4.79393L41.8362 4.79352C38.8228 4.79352 35.9611 5.70862 33.5761 7.36466L44.461 17.8515V48H39.4028V21.924H39.4065V19.8377L28.7157 9.35344C27.5299 8.18667 27.5275 6.28741 28.7113 5.11858L28.7133 5.11668L28.7292 5.10113L28.757 5.07436L28.7956 5.03851Z" fill="black"/>
<path d="M7.66801 41.4675C6.23306 41.4675 4.81605 41.2777 3.41697 40.8982C2.0179 40.5187 0.878906 40.0037 0 39.3532L1.58741 35.7481C2.52013 36.3444 3.50666 36.8052 4.54699 37.1305C5.60527 37.4377 6.66354 37.5913 7.72182 37.5913C8.79803 37.5913 9.62313 37.4467 10.1971 37.1576C10.7711 36.8504 11.0581 36.4257 11.0581 35.8836C11.0581 35.3957 10.798 34.9981 10.2778 34.6909C9.75765 34.3657 8.78009 34.0494 7.34514 33.7422C5.53352 33.3808 4.12548 32.9381 3.12101 32.414C2.11655 31.8719 1.40804 31.2395 0.995496 30.5166C0.600885 29.7938 0.403579 28.9174 0.403579 27.8873C0.403579 26.7127 0.735411 25.6556 1.39908 24.7159C2.06274 23.7582 2.99546 23.0173 4.19723 22.4932C5.39899 21.9511 6.77117 21.6801 8.31374 21.6801C9.69487 21.6801 11.0312 21.8788 12.3226 22.2764C13.632 22.6559 14.6544 23.1619 15.3898 23.7943L13.8293 27.3994C12.9863 26.8031 12.0984 26.3513 11.1657 26.0441C10.233 25.7189 9.30026 25.5562 8.36755 25.5562C7.45277 25.5562 6.71735 25.7369 6.16131 26.0983C5.60527 26.4417 5.32725 26.9115 5.32725 27.5079C5.32725 27.8331 5.4259 28.1042 5.62321 28.321C5.82051 28.5379 6.18822 28.7547 6.72632 28.9716C7.26443 29.1704 8.07159 29.3872 9.1478 29.6221C10.8877 30.0016 12.2509 30.4624 13.2374 31.0045C14.2419 31.5286 14.9504 32.152 15.3629 32.8748C15.7755 33.5796 15.9817 34.4289 15.9817 35.4228C15.9817 37.3022 15.2553 38.784 13.8024 39.8682C12.3495 40.9344 10.3047 41.4675 7.66801 41.4675Z" fill="black"/>
<path d="M35.9421 21.924V41.2235H32.2023L23.5119 30.2727V41.2235H18.8034V21.924H22.4895L31.1799 32.8206V21.924H35.9421Z" fill="black"/>
<path d="M47.9158 21.924H61.2877V25.9086H52.8933V29.4324H60.7496V33.3899H52.8933V41.2235H47.9158V21.924Z" fill="black"/>
<path d="M77 21.924H63.6281V41.2235H68.6055V33.3899H76.4619V29.4324H68.6055V25.9086H77V21.924Z" fill="black"/>
</svg>
